<svg width="40" height="46" viewBox="0 0 40 46" fill="none" xmlns="http://www.w3.org/2000/svg">
<path d="M31.4286 14.2857V11.4286C31.4286 5.12679 26.3017 0 20 0C13.6982 0 8.57143 5.12679 8.57143 11.4286V14.2857H0V38.5714C0 42.5163 3.19795 45.7143 7.14286 45.7143H32.8571C36.8021 45.7143 40 42.5163 40 38.5714V14.2857H31.4286ZM14.2857 11.4286C14.2857 8.27768 16.8491 5.71429 20 5.71429C23.1509 5.71429 25.7143 8.27768 25.7143 11.4286V14.2857H14.2857V11.4286ZM28.5714 22.1429C27.3879 22.1429 26.4286 21.1835 26.4286 20C26.4286 18.8165 27.3879 17.8571 28.5714 17.8571C29.7549 17.8571 30.7143 18.8165 30.7143 20C30.7143 21.1835 29.7549 22.1429 28.5714 22.1429ZM11.4286 22.1429C10.2451 22.1429 9.28571 21.1835 9.28571 20C9.28571 18.8165 10.2451 17.8571 11.4286 17.8571C12.6121 17.8571 13.5714 18.8165 13.5714 20C13.5714 21.1835 12.6121 22.1429 11.4286 22.1429Z" fill="white"/>
</svg>
