<svg width="51" height="50" viewBox="0 0 51 50" fill="none" xmlns="http://www.w3.org/2000/svg">
<path d="M25.007 12.1806C17.9128 12.1806 12.1905 17.9042 12.1905 25C12.1905 32.0958 17.9128 37.8194 25.007 37.8194C32.1013 37.8194 37.8236 32.0958 37.8236 25C37.8236 17.9042 32.1013 12.1806 25.007 12.1806ZM25.007 33.3343C20.4225 33.3343 16.6746 29.5967 16.6746 25C16.6746 20.4033 20.4114 16.6657 25.007 16.6657C29.6027 16.6657 33.3394 20.4033 33.3394 25C33.3394 29.5967 29.5915 33.3343 25.007 33.3343ZM41.3372 11.6563C41.3372 13.3186 39.9987 14.6463 38.3478 14.6463C36.6858 14.6463 35.3584 13.3075 35.3584 11.6563C35.3584 10.005 36.697 8.66618 38.3478 8.66618C39.9987 8.66618 41.3372 10.005 41.3372 11.6563ZM49.8258 14.691C49.6362 10.6856 48.7215 7.13768 45.7879 4.21455C42.8654 1.29142 39.3183 0.376548 35.3138 0.175722C31.1866 -0.0585741 18.8163 -0.0585741 14.6891 0.175722C10.6958 0.365391 7.1487 1.28026 4.21507 4.20339C1.28144 7.12652 0.377929 10.6744 0.177148 14.6798C-0.0570962 18.8079 -0.0570962 31.181 0.177148 35.309C0.366774 39.3144 1.28144 42.8623 4.21507 45.7855C7.1487 48.7086 10.6847 49.6235 14.6891 49.8243C18.8163 50.0586 31.1866 50.0586 35.3138 49.8243C39.3183 49.6346 42.8654 48.7197 45.7879 45.7855C48.7103 42.8623 49.625 39.3144 49.8258 35.309C50.06 31.181 50.06 18.819 49.8258 14.691ZM44.4939 39.7384C43.6239 41.9251 41.9396 43.6098 39.7421 44.4912C36.4516 45.7966 28.6434 45.4954 25.007 45.4954C21.3707 45.4954 13.5514 45.7855 10.272 44.4912C8.08568 43.621 6.40135 41.9363 5.52015 39.7384C4.21507 36.4471 4.51624 28.6372 4.51624 25C4.51624 21.3628 4.22623 13.5418 5.52015 10.2616C6.3902 8.07486 8.07453 6.39016 10.272 5.50876C13.5625 4.20339 21.3707 4.50463 25.007 4.50463C28.6434 4.50463 36.4627 4.21455 39.7421 5.50876C41.9284 6.379 43.6127 8.06371 44.4939 10.2616C45.799 13.5529 45.4978 21.3628 45.4978 25C45.4978 28.6372 45.799 36.4582 44.4939 39.7384Z" fill="#FFF2F2"/>
</svg>
