<svg width="46" height="45" viewBox="0 0 46 45" fill="none" xmlns="http://www.w3.org/2000/svg">
<path d="M40.18 0H4.82289C2.16106 0 0.00146484 2.1596 0.00146484 4.82143V40.1786C0.00146484 42.8404 2.16106 45 4.82289 45H40.18C42.8419 45 45.0015 42.8404 45.0015 40.1786V4.82143C45.0015 2.1596 42.8419 0 40.18 0ZM35.2682 15.9509C35.2883 16.2321 35.2883 16.5234 35.2883 16.8047C35.2883 25.5134 28.6588 35.548 16.545 35.548C12.8084 35.548 9.34298 34.4632 6.43004 32.5949C6.9624 32.6551 7.47468 32.6752 8.01709 32.6752C11.1008 32.6752 13.9334 31.6306 16.1934 29.8627C13.3006 29.8025 10.8698 27.904 10.0361 25.2924C11.0506 25.4431 11.9646 25.4431 13.0093 25.1719C9.99588 24.5592 7.73584 21.9074 7.73584 18.7031V18.6228C8.60972 19.115 9.63428 19.4163 10.7091 19.4565C9.80547 18.8554 9.06473 18.04 8.55294 17.0831C8.04116 16.1261 7.77424 15.0573 7.77602 13.9721C7.77602 12.7467 8.09745 11.6217 8.66999 10.6473C11.9144 14.6451 16.7861 17.2567 22.2503 17.5379C21.3162 13.0681 24.6611 9.44196 28.6789 9.44196C30.5774 9.44196 32.2849 10.2355 33.4903 11.5212C34.9769 11.24 36.4032 10.6875 37.6689 9.93415C37.1767 11.4609 36.1421 12.7467 34.776 13.5603C36.1019 13.4196 37.3876 13.048 38.5729 12.5357C37.6789 13.8516 36.5539 15.0167 35.2682 15.9509Z" fill="white"/>
</svg>
