<svg width="50" height="39" viewBox="0 0 50 39" fill="none" xmlns="http://www.w3.org/2000/svg">
<path d="M0 34.7222C0 37.0226 1.86632 38.8889 4.16667 38.8889H45.8333C48.1337 38.8889 50 37.0226 50 34.7222V19.4444H0V34.7222ZM16.6667 28.8194C16.6667 28.2465 17.1354 27.7778 17.7083 27.7778H29.5139C30.0868 27.7778 30.5556 28.2465 30.5556 28.8194V32.2917C30.5556 32.8646 30.0868 33.3333 29.5139 33.3333H17.7083C17.1354 33.3333 16.6667 32.8646 16.6667 32.2917V28.8194ZM5.55556 28.8194C5.55556 28.2465 6.02431 27.7778 6.59722 27.7778H12.8472C13.4201 27.7778 13.8889 28.2465 13.8889 28.8194V32.2917C13.8889 32.8646 13.4201 33.3333 12.8472 33.3333H6.59722C6.02431 33.3333 5.55556 32.8646 5.55556 32.2917V28.8194ZM50 4.16667V8.33333H0V4.16667C0 1.86632 1.86632 0 4.16667 0H45.8333C48.1337 0 50 1.86632 50 4.16667Z" fill="#F9F9F6"/>
</svg>
