<svg width="50" height="45" viewBox="0 0 50 45" fill="none" xmlns="http://www.w3.org/2000/svg">
<path d="M25 0C18.9592 0 14.0625 4.8967 14.0625 10.9375C14.0625 15.8212 21.2109 24.7222 23.9497 27.9531C24.5043 28.6076 25.4965 28.6076 26.0503 27.9531C28.7891 24.7222 35.9375 15.8212 35.9375 10.9375C35.9375 4.8967 31.0408 0 25 0ZM25 14.5833C22.9861 14.5833 21.3542 12.9514 21.3542 10.9375C21.3542 8.92361 22.9861 7.29167 25 7.29167C27.0139 7.29167 28.6458 8.92361 28.6458 10.9375C28.6458 12.9514 27.0139 14.5833 25 14.5833ZM1.74653 18.7457C1.23106 18.9518 0.789176 19.3077 0.477873 19.7674C0.16657 20.2271 0.000123456 20.7695 0 21.3246L0 43.0538C0 44.0365 0.992187 44.7083 1.90451 44.3437L13.8889 38.8889V18.6562C13.1215 17.2691 12.4939 15.9184 12.0443 14.6267L1.74653 18.7457ZM25 31.2214C23.7786 31.2214 22.6233 30.6849 21.8307 29.7491C20.1241 27.7352 18.309 25.4418 16.6667 23.0894V38.888L33.3333 44.4436V23.0903C31.691 25.4418 29.8767 27.7361 28.1693 29.75C27.3767 30.6849 26.2214 31.2214 25 31.2214ZM48.0955 13.9896L36.1111 19.4444V44.4444L48.2535 39.5877C48.769 39.3816 49.211 39.0257 49.5223 38.566C49.8336 38.1063 50 37.5639 50 37.0087V15.2795C50 14.2969 49.0078 13.625 48.0955 13.9896Z" fill="white"/>
</svg>
