<svg width="50" height="50" viewBox="0 0 50 50" fill="none" xmlns="http://www.w3.org/2000/svg">
<path d="M25 0C11.1996 0 0 11.1996 0 25C0 38.8004 11.1996 50 25 50C38.8004 50 50 38.8004 50 25C50 11.1996 38.8004 0 25 0ZM17.873 37.5C10.9375 37.5 5.37298 31.9052 5.37298 25C5.37298 18.0948 10.9375 12.5 17.873 12.5C21.0282 12.5 23.9314 13.6089 26.2399 15.756L22.8528 19.0423C21.5222 17.7419 19.6976 17.1169 17.873 17.1169C13.5484 17.1169 10.0907 20.6956 10.0907 24.9899C10.0907 29.2843 13.5383 32.8629 17.873 32.8629C21.1593 32.8629 24.4153 30.9375 24.9395 27.4899H17.873V23.1956H29.6573C29.7883 23.881 29.8488 24.5665 29.8488 25.2823C29.8488 32.4194 25.0605 37.5 17.873 37.5ZM41.0786 26.7944V30.373H37.5V26.7944H33.9214V23.2157H37.5V19.6371H41.0786V23.2157H44.627V26.7944H41.0786Z" fill="white"/>
</svg>
