<svg width="51" height="50" viewBox="0 0 51 50" fill="none" xmlns="http://www.w3.org/2000/svg">
<path d="M42.5126 7.26562C37.8363 2.57812 31.6086 0 24.9903 0C11.3296 0 0.213518 11.1161 0.213518 24.7768C0.213518 29.1406 1.35191 33.404 3.51709 37.1652L0.00146484 50L13.1376 46.5513C16.7537 48.5268 20.8274 49.5647 24.9791 49.5647H24.9903C38.6399 49.5647 50.0015 38.4487 50.0015 24.7879C50.0015 18.1696 47.189 11.9531 42.5126 7.26562ZM24.9903 45.3906C21.2849 45.3906 17.6577 44.3973 14.4992 42.5223L13.7515 42.0759L5.96129 44.1183L8.03718 36.5179L7.54611 35.7366C5.48138 32.4554 4.39879 28.6719 4.39879 24.7768C4.39879 13.4263 13.6399 4.18527 25.0015 4.18527C30.5037 4.18527 35.6711 6.32812 39.555 10.2232C43.439 14.1183 45.8274 19.2857 45.8162 24.7879C45.8162 36.1496 36.3407 45.3906 24.9903 45.3906ZM36.2849 29.9665C35.6711 29.654 32.6242 28.1585 32.055 27.9576C31.4858 27.7455 31.0729 27.6451 30.6599 28.2701C30.247 28.8951 29.064 30.279 28.6957 30.7031C28.3385 31.1161 27.9702 31.1719 27.3564 30.8594C23.718 29.0402 21.3296 27.6116 18.93 23.4933C18.2939 22.3996 19.5662 22.4777 20.7492 20.1116C20.9501 19.6987 20.8497 19.3415 20.6934 19.029C20.5372 18.7165 19.2983 15.6696 18.7849 14.4308C18.2827 13.2254 17.7693 13.3929 17.3899 13.3705C17.0327 13.3482 16.6198 13.3482 16.2068 13.3482C15.7939 13.3482 15.1242 13.5045 14.555 14.1183C13.9858 14.7433 12.3899 16.2388 12.3899 19.2857C12.3899 22.3326 14.6108 25.279 14.9122 25.692C15.2247 26.1049 19.276 32.3549 25.4925 35.0446C29.4211 36.7411 30.9613 36.8862 32.9256 36.596C34.1198 36.4174 36.5863 35.1004 37.0997 33.6496C37.6131 32.1987 37.6131 30.9598 37.4568 30.7031C37.3117 30.4241 36.8988 30.2679 36.2849 29.9665Z" fill="white"/>
</svg>
